<mxfile host="app.diagrams.net" modified="2021-08-05T07:56:42.369Z" agent="5.0 (Macintosh; Intel Mac OS X 10_15_7) AppleWebKit/537.36 (KHTML, like Gecko) Chrome/92.0.4515.115 Safari/537.36" etag="Z_s3xL1w0elBw1g5rtrW" version="14.9.3" type="github">
  <diagram id="01eXjTYJ2d1SrXMeanzH" name="Page-1">
    <mxGraphModel dx="897" dy="453" grid="1" gridSize="10" guides="1" tooltips="1" connect="1" arrows="1" fold="1" page="1" pageScale="1" pageWidth="1169" pageHeight="827" math="0" shadow="0">
      <root>
        <mxCell id="0" />
        <mxCell id="1" parent="0" />
        <mxCell id="A4gBskFatexQGphRCRpW-1" value="AWS Cloud" style="points=[[0,0],[0.25,0],[0.5,0],[0.75,0],[1,0],[1,0.25],[1,0.5],[1,0.75],[1,1],[0.75,1],[0.5,1],[0.25,1],[0,1],[0,0.75],[0,0.5],[0,0.25]];outlineConnect=0;gradientColor=none;html=1;whiteSpace=wrap;fontSize=12;fontStyle=0;shape=mxgraph.aws4.group;grIcon=mxgraph.aws4.group_aws_cloud_alt;strokeColor=#232F3E;fillColor=none;verticalAlign=top;align=left;spacingLeft=30;fontColor=#232F3E;dashed=0;" parent="1" vertex="1">
          <mxGeometry x="160" y="40" width="720" height="440" as="geometry" />
        </mxCell>
        <mxCell id="A4gBskFatexQGphRCRpW-28" value="" style="edgeStyle=orthogonalEdgeStyle;rounded=0;orthogonalLoop=1;jettySize=auto;html=1;entryX=0;entryY=0.5;entryDx=0;entryDy=0;entryPerimeter=0;exitX=0.5;exitY=0;exitDx=0;exitDy=0;exitPerimeter=0;" parent="1" source="A4gBskFatexQGphRCRpW-2" target="tQuTpaHwtyXLzw7-6ILT-6" edge="1">
          <mxGeometry relative="1" as="geometry">
            <Array as="points">
              <mxPoint x="329" y="160" />
            </Array>
          </mxGeometry>
        </mxCell>
        <mxCell id="A4gBskFatexQGphRCRpW-34" value="Create Job" style="edgeLabel;html=1;align=center;verticalAlign=middle;resizable=0;points=[];" parent="A4gBskFatexQGphRCRpW-28" vertex="1" connectable="0">
          <mxGeometry x="-0.1472" relative="1" as="geometry">
            <mxPoint x="16" as="offset" />
          </mxGeometry>
        </mxCell>
        <mxCell id="A4gBskFatexQGphRCRpW-33" style="edgeStyle=orthogonalEdgeStyle;rounded=0;orthogonalLoop=1;jettySize=auto;html=1;entryX=0;entryY=0.5;entryDx=0;entryDy=0;entryPerimeter=0;exitX=0.5;exitY=1;exitDx=0;exitDy=0;exitPerimeter=0;" parent="1" source="A4gBskFatexQGphRCRpW-2" target="tQuTpaHwtyXLzw7-6ILT-16" edge="1">
          <mxGeometry relative="1" as="geometry">
            <Array as="points">
              <mxPoint x="329" y="359" />
            </Array>
          </mxGeometry>
        </mxCell>
        <mxCell id="A4gBskFatexQGphRCRpW-35" value="Query&lt;br&gt;Job Status" style="edgeLabel;html=1;align=center;verticalAlign=middle;resizable=0;points=[];" parent="A4gBskFatexQGphRCRpW-33" vertex="1" connectable="0">
          <mxGeometry x="-0.2148" relative="1" as="geometry">
            <mxPoint x="-1" as="offset" />
          </mxGeometry>
        </mxCell>
        <mxCell id="A4gBskFatexQGphRCRpW-2" value="" style="points=[[0,0,0],[0.25,0,0],[0.5,0,0],[0.75,0,0],[1,0,0],[0,1,0],[0.25,1,0],[0.5,1,0],[0.75,1,0],[1,1,0],[0,0.25,0],[0,0.5,0],[0,0.75,0],[1,0.25,0],[1,0.5,0],[1,0.75,0]];outlineConnect=0;fontColor=#232F3E;gradientColor=#F34482;gradientDirection=north;fillColor=#BC1356;strokeColor=#ffffff;dashed=0;verticalLabelPosition=bottom;verticalAlign=top;align=center;html=1;fontSize=12;fontStyle=0;aspect=fixed;shape=mxgraph.aws4.resourceIcon;resIcon=mxgraph.aws4.api_gateway;" parent="1" vertex="1">
          <mxGeometry x="290" y="242" width="78" height="78" as="geometry" />
        </mxCell>
        <mxCell id="A4gBskFatexQGphRCRpW-27" style="edgeStyle=orthogonalEdgeStyle;rounded=0;orthogonalLoop=1;jettySize=auto;html=1;entryX=0;entryY=0.25;entryDx=0;entryDy=0;entryPerimeter=0;" parent="1" source="A4gBskFatexQGphRCRpW-4" target="A4gBskFatexQGphRCRpW-2" edge="1">
          <mxGeometry relative="1" as="geometry">
            <Array as="points">
              <mxPoint x="280" y="262" />
            </Array>
          </mxGeometry>
        </mxCell>
        <mxCell id="A4gBskFatexQGphRCRpW-36" value="Create Job" style="edgeLabel;html=1;align=center;verticalAlign=middle;resizable=0;points=[];" parent="A4gBskFatexQGphRCRpW-27" vertex="1" connectable="0">
          <mxGeometry x="0.14" y="2" relative="1" as="geometry">
            <mxPoint x="4" y="1" as="offset" />
          </mxGeometry>
        </mxCell>
        <mxCell id="IwsQEuC2lQtZMh31J1q6-4" style="edgeStyle=orthogonalEdgeStyle;rounded=0;orthogonalLoop=1;jettySize=auto;html=1;entryX=0;entryY=0.75;entryDx=0;entryDy=0;entryPerimeter=0;" parent="1" source="A4gBskFatexQGphRCRpW-4" target="A4gBskFatexQGphRCRpW-2" edge="1">
          <mxGeometry relative="1" as="geometry">
            <Array as="points">
              <mxPoint x="280" y="301" />
            </Array>
          </mxGeometry>
        </mxCell>
        <mxCell id="IwsQEuC2lQtZMh31J1q6-5" value="Query&lt;br&gt;Job Status" style="edgeLabel;html=1;align=center;verticalAlign=middle;resizable=0;points=[];" parent="IwsQEuC2lQtZMh31J1q6-4" vertex="1" connectable="0">
          <mxGeometry x="0.3264" relative="1" as="geometry">
            <mxPoint x="-12" as="offset" />
          </mxGeometry>
        </mxCell>
        <mxCell id="A4gBskFatexQGphRCRpW-4" value="" style="outlineConnect=0;fontColor=#232F3E;gradientColor=none;fillColor=#232F3E;strokeColor=none;dashed=0;verticalLabelPosition=bottom;verticalAlign=top;align=center;html=1;fontSize=12;fontStyle=0;aspect=fixed;pointerEvents=1;shape=mxgraph.aws4.client;" parent="1" vertex="1">
          <mxGeometry x="40" y="250" width="78" height="76" as="geometry" />
        </mxCell>
        <mxCell id="A4gBskFatexQGphRCRpW-7" value="Jobs" style="points=[[0,0,0],[0.25,0,0],[0.5,0,0],[0.75,0,0],[1,0,0],[0,1,0],[0.25,1,0],[0.5,1,0],[0.75,1,0],[1,1,0],[0,0.25,0],[0,0.5,0],[0,0.75,0],[1,0.25,0],[1,0.5,0],[1,0.75,0]];outlineConnect=0;fontColor=#232F3E;gradientColor=#4D72F3;gradientDirection=north;fillColor=#3334B9;strokeColor=#ffffff;dashed=0;verticalLabelPosition=bottom;verticalAlign=top;align=center;html=1;fontSize=12;fontStyle=0;aspect=fixed;shape=mxgraph.aws4.resourceIcon;resIcon=mxgraph.aws4.dynamodb;" parent="1" vertex="1">
          <mxGeometry x="760" y="320" width="78" height="78" as="geometry" />
        </mxCell>
        <mxCell id="A4gBskFatexQGphRCRpW-29" style="edgeStyle=orthogonalEdgeStyle;rounded=0;orthogonalLoop=1;jettySize=auto;html=1;exitX=1;exitY=0.5;exitDx=0;exitDy=0;exitPerimeter=0;entryX=0.5;entryY=0;entryDx=0;entryDy=0;entryPerimeter=0;" parent="1" source="tQuTpaHwtyXLzw7-6ILT-6" target="tQuTpaHwtyXLzw7-6ILT-1" edge="1">
          <mxGeometry relative="1" as="geometry">
            <Array as="points">
              <mxPoint x="799" y="160" />
            </Array>
            <mxPoint x="600" y="268" as="targetPoint" />
          </mxGeometry>
        </mxCell>
        <mxCell id="A4gBskFatexQGphRCRpW-30" value="Ref#" style="edgeLabel;html=1;align=center;verticalAlign=middle;resizable=0;points=[];" parent="A4gBskFatexQGphRCRpW-29" vertex="1" connectable="0">
          <mxGeometry x="-0.382" relative="1" as="geometry">
            <mxPoint x="-12" y="-1" as="offset" />
          </mxGeometry>
        </mxCell>
        <mxCell id="A4gBskFatexQGphRCRpW-32" value="" style="edgeStyle=orthogonalEdgeStyle;rounded=0;orthogonalLoop=1;jettySize=auto;html=1;exitX=1;exitY=0.5;exitDx=0;exitDy=0;exitPerimeter=0;" parent="1" source="tQuTpaHwtyXLzw7-6ILT-16" target="A4gBskFatexQGphRCRpW-7" edge="1">
          <mxGeometry relative="1" as="geometry" />
        </mxCell>
        <mxCell id="A4gBskFatexQGphRCRpW-26" style="edgeStyle=orthogonalEdgeStyle;rounded=0;orthogonalLoop=1;jettySize=auto;html=1;" parent="1" source="A4gBskFatexQGphRCRpW-23" target="A4gBskFatexQGphRCRpW-24" edge="1">
          <mxGeometry relative="1" as="geometry" />
        </mxCell>
        <mxCell id="A4gBskFatexQGphRCRpW-23" value="" style="outlineConnect=0;fontColor=#232F3E;gradientColor=none;fillColor=#232F3E;strokeColor=none;dashed=0;verticalLabelPosition=bottom;verticalAlign=top;align=center;html=1;fontSize=12;fontStyle=0;aspect=fixed;pointerEvents=1;shape=mxgraph.aws4.internet_alt2;" parent="1" vertex="1">
          <mxGeometry x="920" y="200" width="78" height="78" as="geometry" />
        </mxCell>
        <mxCell id="A4gBskFatexQGphRCRpW-24" value="JokeAPI" style="outlineConnect=0;fontColor=#232F3E;gradientColor=none;fillColor=#232F3E;strokeColor=none;dashed=0;verticalLabelPosition=bottom;verticalAlign=top;align=center;html=1;fontSize=12;fontStyle=0;aspect=fixed;pointerEvents=1;shape=mxgraph.aws4.traditional_server;" parent="1" vertex="1">
          <mxGeometry x="1040" y="200" width="45" height="78" as="geometry" />
        </mxCell>
        <mxCell id="A4gBskFatexQGphRCRpW-25" style="edgeStyle=orthogonalEdgeStyle;rounded=0;orthogonalLoop=1;jettySize=auto;html=1;exitX=1;exitY=0.5;exitDx=0;exitDy=0;exitPerimeter=0;" parent="1" source="tQuTpaHwtyXLzw7-6ILT-1" target="A4gBskFatexQGphRCRpW-23" edge="1">
          <mxGeometry relative="1" as="geometry">
            <mxPoint x="795" y="260" as="sourcePoint" />
          </mxGeometry>
        </mxCell>
        <mxCell id="tQuTpaHwtyXLzw7-6ILT-2" style="edgeStyle=orthogonalEdgeStyle;rounded=0;orthogonalLoop=1;jettySize=auto;html=1;" parent="1" source="tQuTpaHwtyXLzw7-6ILT-1" target="A4gBskFatexQGphRCRpW-7" edge="1">
          <mxGeometry relative="1" as="geometry" />
        </mxCell>
        <mxCell id="tQuTpaHwtyXLzw7-6ILT-1" value="RetrieveJokeStateMachine" style="points=[[0,0,0],[0.25,0,0],[0.5,0,0],[0.75,0,0],[1,0,0],[0,1,0],[0.25,1,0],[0.5,1,0],[0.75,1,0],[1,1,0],[0,0.25,0],[0,0.5,0],[0,0.75,0],[1,0.25,0],[1,0.5,0],[1,0.75,0]];outlineConnect=0;fontColor=#232F3E;gradientColor=#F34482;gradientDirection=north;fillColor=#BC1356;strokeColor=#ffffff;dashed=0;verticalLabelPosition=bottom;verticalAlign=top;align=center;html=1;fontSize=12;fontStyle=0;aspect=fixed;shape=mxgraph.aws4.resourceIcon;resIcon=mxgraph.aws4.step_functions;" parent="1" vertex="1">
          <mxGeometry x="760" y="200" width="78" height="78" as="geometry" />
        </mxCell>
        <mxCell id="tQuTpaHwtyXLzw7-6ILT-12" value="" style="group" parent="1" vertex="1" connectable="0">
          <mxGeometry x="440" y="80" width="240" height="160" as="geometry" />
        </mxCell>
        <mxCell id="tQuTpaHwtyXLzw7-6ILT-3" value="CreateJobFunction" style="fillColor=none;strokeColor=#5A6C86;dashed=1;verticalAlign=top;fontStyle=0;fontColor=#5A6C86;" parent="tQuTpaHwtyXLzw7-6ILT-12" vertex="1">
          <mxGeometry width="240" height="160" as="geometry" />
        </mxCell>
        <mxCell id="tQuTpaHwtyXLzw7-6ILT-5" value="" style="outlineConnect=0;fontColor=#232F3E;gradientColor=none;fillColor=#D05C17;strokeColor=none;dashed=0;verticalLabelPosition=bottom;verticalAlign=top;align=center;html=1;fontSize=12;fontStyle=0;aspect=fixed;pointerEvents=1;shape=mxgraph.aws4.lambda_function;" parent="tQuTpaHwtyXLzw7-6ILT-12" vertex="1">
          <mxGeometry x="10" y="10" width="40" height="40" as="geometry" />
        </mxCell>
        <mxCell id="tQuTpaHwtyXLzw7-6ILT-6" value="CreateJobHandler" style="points=[[0,0,0],[0.25,0,0],[0.5,0,0],[0.75,0,0],[1,0,0],[0,1,0],[0.25,1,0],[0.5,1,0],[0.75,1,0],[1,1,0],[0,0.25,0],[0,0.5,0],[0,0.75,0],[1,0.25,0],[1,0.5,0],[1,0.75,0]];gradientDirection=north;outlineConnect=0;fontColor=#232F3E;gradientColor=#505863;fillColor=#1E262E;strokeColor=#ffffff;dashed=0;verticalLabelPosition=bottom;verticalAlign=top;align=center;html=1;fontSize=12;fontStyle=0;aspect=fixed;shape=mxgraph.aws4.resourceIcon;resIcon=mxgraph.aws4.general;" parent="tQuTpaHwtyXLzw7-6ILT-12" vertex="1">
          <mxGeometry x="81" y="41" width="78" height="78" as="geometry" />
        </mxCell>
        <mxCell id="tQuTpaHwtyXLzw7-6ILT-13" value="" style="group" parent="1" vertex="1" connectable="0">
          <mxGeometry x="440" y="279" width="240" height="160" as="geometry" />
        </mxCell>
        <mxCell id="tQuTpaHwtyXLzw7-6ILT-14" value="JobStatusFunction" style="fillColor=none;strokeColor=#5A6C86;dashed=1;verticalAlign=top;fontStyle=0;fontColor=#5A6C86;" parent="tQuTpaHwtyXLzw7-6ILT-13" vertex="1">
          <mxGeometry width="240" height="160" as="geometry" />
        </mxCell>
        <mxCell id="tQuTpaHwtyXLzw7-6ILT-15" value="" style="outlineConnect=0;fontColor=#232F3E;gradientColor=none;fillColor=#D05C17;strokeColor=none;dashed=0;verticalLabelPosition=bottom;verticalAlign=top;align=center;html=1;fontSize=12;fontStyle=0;aspect=fixed;pointerEvents=1;shape=mxgraph.aws4.lambda_function;" parent="tQuTpaHwtyXLzw7-6ILT-13" vertex="1">
          <mxGeometry x="10" y="10" width="40" height="40" as="geometry" />
        </mxCell>
        <mxCell id="tQuTpaHwtyXLzw7-6ILT-16" value="JobStatusHandler" style="points=[[0,0,0],[0.25,0,0],[0.5,0,0],[0.75,0,0],[1,0,0],[0,1,0],[0.25,1,0],[0.5,1,0],[0.75,1,0],[1,1,0],[0,0.25,0],[0,0.5,0],[0,0.75,0],[1,0.25,0],[1,0.5,0],[1,0.75,0]];gradientDirection=north;outlineConnect=0;fontColor=#232F3E;gradientColor=#505863;fillColor=#1E262E;strokeColor=#ffffff;dashed=0;verticalLabelPosition=bottom;verticalAlign=top;align=center;html=1;fontSize=12;fontStyle=0;aspect=fixed;shape=mxgraph.aws4.resourceIcon;resIcon=mxgraph.aws4.general;" parent="tQuTpaHwtyXLzw7-6ILT-13" vertex="1">
          <mxGeometry x="81" y="41" width="78" height="78" as="geometry" />
        </mxCell>
      </root>
    </mxGraphModel>
  </diagram>
</mxfile>
